<svg width="216" height="24" viewBox="0 0 216 24" fill="none" xmlns="http://www.w3.org/2000/svg">
<path d="M18 11V10H17V9H15V7H13V5H11V3H5V21H11V20V19H13V17H15V15H17V14H18V13H19V11H18ZM13 13V15H11V17H9V19H7V5H9V7H11V9H13V11H15V13H13Z" fill="black"/>
<path fill-rule="evenodd" clip-rule="evenodd" d="M31 20V4H34V20H31ZM38 20V4H41V20H38Z" fill="black"/>
<path fill-rule="evenodd" clip-rule="evenodd" d="M52 3H54V21H52V3ZM60 5H62V3H68V21H62V19H60V17H58V15H56V14H55V10H56V9H58V7H60V5ZM58 11V13H60V15H62V17H64V19H66V5H64V7H62V9H60V11H58Z" fill="black"/>
<path fill-rule="evenodd" clip-rule="evenodd" d="M76 3H82V5H84V7H86V9H88V10H89V14H88V15H86V17H84V19H82V21H76V3ZM84 15V13H86V11H84V9H82V7H80V5H78V19H80V17H82V15H84ZM90 3H92V21H90V3Z" fill="black"/>
<rect x="124" y="6" width="18" height="2" fill="black"/>
<rect x="140" y="11" width="2" height="5" fill="black"/>
<rect x="124" y="14" width="2" height="2" fill="black"/>
<rect x="124" y="18" width="2" height="2" fill="black"/>
<rect x="122" y="16" width="18" height="2" fill="black"/>
<rect x="126" y="20" width="2" height="2" fill="black"/>
<rect x="126" y="12" width="2" height="2" fill="black"/>
<rect x="138" y="4" width="2" height="2" fill="black"/>
<rect x="136" y="2" width="2" height="2" fill="black"/>
<rect x="138" y="8" width="2" height="2" fill="black"/>
<rect x="136" y="10" width="2" height="2" fill="black"/>
<rect x="122" y="8" width="2" height="5" fill="black"/>
<path fill-rule="evenodd" clip-rule="evenodd" d="M186 5H184V7H186V9H180V11H178V17H170V19H178V17H180V11H186V13H184V15H186V13H188V11H190V9H188V7H186V5ZM170 9H176V11H170V9ZM190 19V17H182V19H190Z" fill="black"/>
<rect x="148" y="6.00024" width="18" height="2" fill="black"/>
<rect x="164" y="11.0002" width="2" height="5" fill="black"/>
<rect x="154.999" y="8.50024" width="2" height="7" fill="black"/>
<rect x="148" y="13.9995" width="2" height="2" fill="black"/>
<rect x="148" y="17.9998" width="2" height="2" fill="black"/>
<rect x="146" y="16.0002" width="18" height="2" fill="black"/>
<rect x="149.999" y="20.0005" width="2" height="2" fill="black"/>
<rect x="149.999" y="12" width="2" height="2" fill="black"/>
<rect x="162.001" y="3.99951" width="2" height="2" fill="black"/>
<rect x="159.999" y="2" width="2" height="2" fill="black"/>
<rect x="162.001" y="7.99976" width="2" height="2" fill="black"/>
<path d="M159.999 10.0005H161.999V12.0005H159.999V10.0005Z" fill="black"/>
<path d="M153 9.5H155V11.5H153V9.5Z" fill="black"/>
<rect x="146" y="7.99976" width="2" height="5" fill="black"/>
<path fill-rule="evenodd" clip-rule="evenodd" d="M106 13H112V9V5H114H118V9H114V13V15V17V19H106V17V15V13ZM108 15V17H112V15H108ZM98 17H104V19H98V17ZM104 13H98V15H104V13ZM98 9H110V11H98V9ZM110 5H98V7H110V5Z" fill="black"/>
<rect x="205" y="9" width="2" height="2" transform="rotate(180 205 9)" fill="black"/>
<rect x="207" y="11" width="2" height="2" transform="rotate(180 207 11)" fill="black"/>
<rect x="203" y="11" width="2" height="2" transform="rotate(180 203 11)" fill="black"/>
<rect x="201" y="13" width="2" height="2" transform="rotate(180 201 13)" fill="black"/>
<rect x="209" y="13" width="2" height="2" transform="rotate(180 209 13)" fill="black"/>
<rect x="211" y="15" width="2" height="2" transform="rotate(180 211 15)" fill="black"/>
<rect x="199" y="15" width="2" height="2" transform="rotate(180 199 15)" fill="black"/>
<rect x="197" y="17" width="2" height="2" transform="rotate(180 197 17)" fill="black"/>
<rect x="213" y="17" width="2" height="2" transform="rotate(180 213 17)" fill="black"/>
</svg>
